<svg xmlns="http://www.w3.org/2000/svg" viewBox="0 0 1920 1080"><defs><style>.cls-1,.cls-9{fill:#fff;}.cls-2,.cls-5,.cls-6,.cls-8{fill:none;}.cls-10,.cls-2,.cls-3,.cls-4,.cls-5,.cls-9{stroke:#000;}.cls-10,.cls-2,.cls-3,.cls-4,.cls-5,.cls-6,.cls-8,.cls-9{stroke-miterlimit:10;}.cls-2,.cls-3,.cls-6{stroke-width:4px;}.cls-3,.cls-4{fill:#07b3e8;}.cls-5{stroke-width:3px;}.cls-6{stroke:#020202;}.cls-7{fill:#020202;}.cls-8{stroke:#0f0f0f;stroke-width:12px;}.cls-9{stroke-width:2px;}.cls-10{fill:#050505;}</style></defs><title>spade bee chip black &amp;amp; white &amp;amp; gradient</title><g id="Layer_2" data-name="Layer 2"><rect class="cls-1" width="1920" height="1080"/></g><g id="Layer_1" data-name="Layer 1"><polyline class="cls-2" points="878.29 331.25 878.29 253.85 854.39 235.07"/><polyline class="cls-2" points="1054.73 662.49 1054.73 739.89 1078.63 758.68"/><line class="cls-3" x1="919.27" y1="327.84" x2="919.27" y2="286.86"/><line class="cls-4" x1="1010.33" y1="662.49" x2="1010.33" y2="703.47"/><polyline class="cls-2" points="799.18 531.02 721.78 531.02 703 554.92"/><line class="cls-2" x1="795.77" y1="485.49" x2="754.79" y2="485.49"/><polyline class="cls-2" points="962.53 327.27 962.53 217.99 981.88 197.5"/><polyline class="cls-2" points="864.63 652.25 864.63 761.52 845.28 782.01"/><polyline class="cls-2" points="796.91 436.54 687.63 436.54 667.14 417.19"/><line class="cls-2" x1="1006.92" y1="333.53" x2="1006.92" y2="249.3"/><line class="cls-2" x1="972.77" y1="665.91" x2="972.77" y2="750.14"/><line class="cls-3" x1="795.77" y1="386.46" x2="711.54" y2="386.46"/><polyline class="cls-2" points="1070.66 255.56 1050.17 265.8 1050.17 327.84"/><polyline class="cls-2" points="923.83 655.66 923.83 717.7 903.34 727.94"/><polyline class="cls-2" points="1124.73 459.31 1202.13 459.31 1220.92 435.4"/><line class="cls-2" x1="1124.73" y1="504.84" x2="1165.71" y2="504.84"/><polyline class="cls-2" points="1123.59 589.07 1232.87 589.07 1253.36 608.42"/><line class="cls-2" x1="1123.59" y1="546.96" x2="1207.83" y2="546.96"/><polyline class="cls-2" points="1124.73 413.78 1186.77 413.78 1197.01 393.29"/><polyline class="cls-2" points="795.77 575.41 733.73 575.41 723.49 595.9"/><path class="cls-2" d="M848.13,222a11.38,11.38,0,1,0,11.38,11.38A11.39,11.39,0,0,0,848.13,222Zm0,14.8a3.42,3.42,0,1,1,3.41-3.42A3.42,3.42,0,0,1,848.13,236.78Z"/><path class="cls-2" d="M1084.89,771.77a11.39,11.39,0,1,0-11.38-11.39A11.39,11.39,0,0,0,1084.89,771.77Zm0-14.8a3.42,3.42,0,1,1-3.41,3.41A3.41,3.41,0,0,1,1084.89,757Z"/><path class="cls-2" d="M919.84,268.65A11.38,11.38,0,1,0,931.22,280,11.39,11.39,0,0,0,919.84,268.65Zm0,14.8a3.42,3.42,0,1,1,3.42-3.42A3.41,3.41,0,0,1,919.84,283.45Z"/><path class="cls-2" d="M1009.77,721.68a11.38,11.38,0,1,0-11.39-11.38A11.39,11.39,0,0,0,1009.77,721.68Zm0-14.8a3.42,3.42,0,1,1-3.42,3.42A3.42,3.42,0,0,1,1009.77,706.88Z"/><path class="cls-5" d="M689.91,561.19a11.38,11.38,0,1,0,11.38-11.39A11.39,11.39,0,0,0,689.91,561.19Zm14.8,0a3.42,3.42,0,1,1-3.42-3.42A3.42,3.42,0,0,1,704.71,561.19Z"/><path class="cls-5" d="M736.58,484.92A11.38,11.38,0,1,0,748,473.54,11.39,11.39,0,0,0,736.58,484.92Zm14.8,0a3.42,3.42,0,1,1-3.42-3.41A3.42,3.42,0,0,1,751.38,484.92Z"/><path class="cls-6" d="M984.72,181a11.39,11.39,0,1,0,11.39,11.38A11.39,11.39,0,0,0,984.72,181Zm0,14.8a3.42,3.42,0,1,1,3.42-3.42A3.41,3.41,0,0,1,984.72,195.8Z"/><path class="cls-2" d="M839.59,799.65a11.38,11.38,0,1,0-11.38-11.38A11.39,11.39,0,0,0,839.59,799.65Zm0-14.79a3.42,3.42,0,1,1-3.41,3.41A3.41,3.41,0,0,1,839.59,784.86Z"/><path class="cls-5" d="M649.5,411.5a11.39,11.39,0,1,0,11.38-11.38A11.39,11.39,0,0,0,649.5,411.5Zm14.8,0a3.42,3.42,0,1,1-3.42-3.41A3.42,3.42,0,0,1,664.3,411.5Z"/><path class="cls-2" d="M1006.35,230a11.38,11.38,0,1,0,11.38,11.38A11.39,11.39,0,0,0,1006.35,230Zm0,14.79a3.42,3.42,0,1,1,3.42-3.41A3.4,3.4,0,0,1,1006.35,244.74Z"/><path class="cls-2" d="M972.2,769.49a11.39,11.39,0,1,1,11.38-11.38A11.39,11.39,0,0,1,972.2,769.49Zm0-14.8a3.42,3.42,0,1,0,3.42,3.42A3.41,3.41,0,0,0,972.2,754.69Z"/><path class="cls-5" d="M692.19,385.89a11.38,11.38,0,1,1,11.38,11.38A11.38,11.38,0,0,1,692.19,385.89Zm14.79,0a3.42,3.42,0,1,0-3.41,3.41A3.4,3.4,0,0,0,707,385.89Z"/><path class="cls-2" d="M1074.65,240.19A11.39,11.39,0,1,0,1086,251.57,11.39,11.39,0,0,0,1074.65,240.19Zm0,14.8a3.42,3.42,0,1,1,3.41-3.42A3.42,3.42,0,0,1,1074.65,255Z"/><path class="cls-2" d="M899.35,743.31A11.39,11.39,0,1,0,888,731.93,11.38,11.38,0,0,0,899.35,743.31Zm0-14.8a3.42,3.42,0,1,1-3.41,3.42A3.42,3.42,0,0,1,899.35,728.51Z"/><path class="cls-2" d="M1234,429.14a11.39,11.39,0,1,0-11.39,11.39A11.39,11.39,0,0,0,1234,429.14Zm-14.8,0a3.42,3.42,0,1,1,3.41,3.42A3.41,3.41,0,0,1,1219.21,429.14Z"/><path class="cls-2" d="M1183.92,505.41a11.38,11.38,0,1,0-11.38,11.38A11.39,11.39,0,0,0,1183.92,505.41Zm-14.8,0a3.42,3.42,0,1,1,3.42,3.41A3.42,3.42,0,0,1,1169.12,505.41Z"/><path class="cls-2" d="M1271,614.11a11.39,11.39,0,1,0-11.38,11.39A11.39,11.39,0,0,0,1271,614.11Zm-14.8,0a3.42,3.42,0,1,1,3.42,3.42A3.42,3.42,0,0,1,1256.2,614.11Z"/><path class="cls-2" d="M1227.18,547.53a11.39,11.39,0,1,1-11.39-11.39A11.39,11.39,0,0,1,1227.18,547.53Zm-14.8,0a3.42,3.42,0,1,0,3.41-3.42A3.4,3.4,0,0,0,1212.38,547.53Z"/><path class="cls-2" d="M1212.38,389.3A11.39,11.39,0,1,1,1201,377.92,11.39,11.39,0,0,1,1212.38,389.3Zm-14.8,0a3.42,3.42,0,1,0,3.42-3.41A3.42,3.42,0,0,0,1197.58,389.3Z"/><path class="cls-5" d="M708.12,599.89a11.39,11.39,0,1,1,11.38,11.38A11.39,11.39,0,0,1,708.12,599.89Zm14.8,0a3.42,3.42,0,1,0-3.42,3.41A3.42,3.42,0,0,0,722.92,599.89Z"/><path class="cls-7" d="M1071.1,415v174.6a22.83,22.83,0,0,1-22.83,22.83H873.67a22.83,22.83,0,0,1-22.83-22.83V415a22.83,22.83,0,0,1,22.83-22.83h174.6A22.83,22.83,0,0,1,1071.1,415Z"/><path class="cls-7" d="M791.22,348.22V642.11A24.93,24.93,0,0,0,816.15,667H1110A24.94,24.94,0,0,0,1135,642.11V348.22A25,25,0,0,0,1110,323.28H816.15A24.94,24.94,0,0,0,791.22,348.22ZM1087.12,646h-248a25,25,0,0,1-24.94-24.94v-248a25,25,0,0,1,24.94-24.94h248a25,25,0,0,1,24.94,24.94V621.1A25,25,0,0,1,1087.12,646Z"/><path class="cls-7" d="M1096.36,614.31c-12.16-9.29-26,4.5-16.66,16.67C1091.86,640.27,1105.66,626.48,1096.36,614.31Zm-5.82,10.84c-3.68,2.77-7.79-1.34-5-5C1089.2,617.37,1093.3,621.48,1090.54,625.15Z"/><path class="cls-7" d="M840.42,360.59A11.38,11.38,0,1,0,851.81,372,11.39,11.39,0,0,0,840.42,360.59Zm0,14.79a3.41,3.41,0,1,1,3.42-3.41A3.4,3.4,0,0,1,840.42,375.38Z"/><rect class="cls-8" x="630" y="174" width="661" height="661" rx="166.28"/><path class="cls-9" d="M948.32,549.36c-17.59,15.62-51.61,2.42-54.5-24.09a35.59,35.59,0,0,1,4.06-19.81A114.71,114.71,0,0,1,916,481.59c16.13-16.6,33-32.46,44.46-53.67,12.92,24.31,33.22,41.5,51.3,60.71A72.57,72.57,0,0,1,1023.55,506c7.27,14.66,3.93,31.13-7.63,41.56-10.39,9.38-35.27,12.1-44.72,2.42,1.72,10.52,16.78,22.48,24,28.15H925.23C936.67,571.79,946.12,559.7,948.32,549.36Z"/><path class="cls-10" d="M921,500.42a27.19,27.19,0,0,0-5.57.42V516h5.71a16.84,16.84,0,0,0,2.92-.24h0c4.85-.84,7.63-3.83,7.63-7.66C931.66,502.58,927.32,500.42,921,500.42Zm1.46,11.5a4.91,4.91,0,0,1-1.11.12h-2.18v-7.45a8,8,0,0,1,2.12-.21c2.43,0,4.08,1.07,4.08,3.78A3.63,3.63,0,0,1,922.43,511.92Z"/><path class="cls-10" d="M920.6,520.65h-5.2v18a34.75,34.75,0,0,0,5.28.28c6.5,0,12.49-2.31,12.49-9.17C933.17,523.31,927.47,520.65,920.6,520.65Zm3.15,13a4.39,4.39,0,0,1-1.11.13h-2.18v-8.3a7.32,7.32,0,0,1,2.12-.23c2.43,0,4.08,1.18,4.08,4.21A4,4,0,0,1,923.75,533.68Z"/><path class="cls-10" d="M1004.71,541.73c-4.57,2.78-15.76,6.24-19.55-.11V521.31a.28.28,0,0,1,.29-.29h11.6l2.1,9.64h1V504.28h-1l-1.92,10.55v0H985.45a.29.29,0,0,1-.29-.29V480.52a.29.29,0,0,1,.45-.24c4.84,3.37,17.46,14.68,20.65,17.88l2.93,11.19h1.34l-.34-13.1c-6.32-6.09-24.71-23.67-33.77-34.59a131.13,131.13,0,0,1-8.75-10.82q-3.13-4.32-6-9c-.52-.84-1-1.68-1.51-2.54q-1.57,2.84-3.39,5.64l-.24.36c-.24.38-.5.76-.75,1.13l-.79,1.17-.59.86c-.49.7-1,1.39-1.51,2.09-.34.47-.68.94-1,1.4l-.07.09c-2.43,3.23-8.24,10-8.24,10-7.47,8.35-33.07,34.46-33.07,34.46a58,58,0,0,1,11-.94c6.29,0,10.33,1.05,13.36,3.43a9.78,9.78,0,0,1,4.05,8.33c0,4.55-3.11,8.54-8.24,10.36v.14c3.24.79,9.31,1.83,13.14,6.21l.09,0,0,0a13.9,13.9,0,0,1,3.21,7.68c.3,11.55-7.76,16.31-10,17.17a35.7,35.7,0,0,0,10.42-4.6c2.36-1.52,4.55-3.3,7-5.2a.62.62,0,0,1,1,.58,62.88,62.88,0,0,1-13.83,31.75h.14l9.46.13,9.59.13,8.79-.13,8.71-.13h.08l-.74-.85a56.15,56.15,0,0,1-9.45-15.77.08.08,0,0,0,0,0,60.7,60.7,0,0,1-3.59-13.82,1.21,1.21,0,0,1,1.89-1.14c3.7,2.63,9.88,6.54,10,6.59v0c1.18.58,4,1.92,4.6,2.1h.05a38,38,0,0,0,5,1l.72.08q.32,0,.63.06a29.61,29.61,0,0,0,4.4.09h.08a32.22,32.22,0,0,0,14-4.17,27.54,27.54,0,0,0,2.7-1.81c.08-.07,1.7-2,1.45-2Zm-25.88,2.41a.29.29,0,0,1-.33.29,5.7,5.7,0,0,1-1.93-.58l-.12,0C971,540.37,965,534.07,962.81,538a3.68,3.68,0,0,0-.41,2.21c1.32,11.94,5.08,21.24,9.77,28.27l-25.58.53c5.59-5.34,9.74-17.72,11-29a3,3,0,0,0-1.67-3.06c-2.35-1.06-3.69,2.06-8,4.66,5.33-4.53,7.73-20.78-5.59-25.57,4.53-7.73,6.39-24-18.12-26.38,9.93-12.08,24-24.51,35.7-42.36,3.32,4.55,14.88,19,18.57,23.62a5.07,5.07,0,0,1,1.12,3.25C981.26,495.74,980.75,519.3,978.83,544.14Z"/><path class="cls-10" d="M974.3,546.91"/><path class="cls-10" d="M973.86,509l-2.35,8.28a41.5,41.5,0,0,1-5.55.29,27.74,27.74,0,0,1-9.26-1.3c-.15-1.53-.25-3.37-.3-5.49s-.09-4.8-.12-8.06a58.83,58.83,0,0,1,.25-7.81,52.83,52.83,0,0,1,7-.39,42.69,42.69,0,0,1,5.56.36l1.34,6.2h.49l0-14.65h-.49l-1.32,5.85a54.12,54.12,0,0,1-6.74.43q-1.25,0-5.82-.33-.22-2.79-.21-7.26A125,125,0,0,1,957,472.4a35.55,35.55,0,0,1,9-.9c2,0,3.89.08,5.53.22l2.06,8.4H974l-.69-10.7-24-.07.33,1.55q.3,3.27.47,6.53t.24,6.31c0,2,.08,3.6.07,4.7l0,8.67c0,1.21,0,2.63-.07,4.24s-.12,3.63-.22,6-.22,4.56-.35,6.48-.28,3.36-.44,4.3l-.16,1.55,24.41.07.67-10.76Zm-21,5H951l.13-43.4H953Z"/><path class="cls-7" d="M836.68,611.7a11.38,11.38,0,1,0,11.38,11.38A11.39,11.39,0,0,0,836.68,611.7Zm0,14.79a3.41,3.41,0,1,1,3.41-3.41A3.4,3.4,0,0,1,836.68,626.49Z"/><path class="cls-7" d="M1097,363.75c-12.16-9.3-26,4.5-16.66,16.66C1092.51,389.71,1106.31,375.91,1097,363.75Zm-5.82,10.84c-3.68,2.77-7.79-1.34-5-5C1089.85,366.8,1094,370.91,1091.19,374.59Z"/></g></svg>